<svg width="24" height="24" viewBox="0 0 24 24" fill="none" xmlns="http://www.w3.org/2000/svg">
<path d="M20.16 10.6219C20.3137 10.1203 20.4 9.57187 20.4 9C20.4 6.51562 18.7875 4.5 16.8 4.5C16.0613 4.5 15.3713 4.78125 14.8013 5.25937C13.7625 3.00937 11.8238 1.5 9.6 1.5C6.285 1.5 3.6 4.85625 3.6 9C3.6 9.12656 3.60375 9.25313 3.6075 9.37969C1.5075 10.3031 0 12.8062 0 15.75C0 19.4766 2.41875 22.5 5.4 22.5H19.2C21.8513 22.5 24 19.8141 24 16.5C24 13.5984 22.35 11.175 20.16 10.6219ZM15.1763 14.7797L11.2238 19.7203C10.9913 20.0109 10.6088 20.0109 10.3763 19.7203L6.42375 14.7797C6.045 14.3062 6.315 13.5 6.8475 13.5H9.3V8.25C9.3 7.8375 9.57 7.5 9.9 7.5H11.7C12.03 7.5 12.3 7.8375 12.3 8.25V13.5H14.7525C15.285 13.5 15.555 14.3062 15.1763 14.7797Z" fill="#58585B" fill-opacity="0.5"/>
</svg>
