<svg width="24" height="24" viewBox="0 0 24 24" fill="none" xmlns="http://www.w3.org/2000/svg">
<path d="M21.8737 13.6919L19.1075 19.5116C18.8923 19.9645 18.584 20.3403 18.2136 20.6014C17.8431 20.8626 17.4233 21 16.9961 21H1.7197C1.01223 21 0.571427 20.0581 0.927896 19.3081L3.69409 13.4884C3.90936 13.0355 4.2176 12.6597 4.58807 12.3986C4.95855 12.1374 5.37832 12 5.80556 12H21.082C21.7894 12 22.2302 12.9419 21.8737 13.6919ZM5.80556 10.5H18.3333V8.25C18.3333 7.00734 17.5125 6 16.5 6H10.3889L7.94444 3H1.83333C0.820799 3 0 4.00734 0 5.25V18.2834L2.63836 12.7326C3.2929 11.3555 4.50652 10.5 5.80556 10.5Z" fill="#58585B" fill-opacity="0.5"/>
</svg>
